<svg data-v-423bf9ae="" xmlns="http://www.w3.org/2000/svg" viewBox="0 0 288.8326365542792 60" class="font"><!----><!----><!----><g data-v-423bf9ae="" id="5ecde064-7bb6-444a-85e3-c8409ae36628" fill="white" transform="matrix(4.897958802362652,0,0,4.897958802362652,-0.1469350243728229,-18.514284371217677)"><path d="M9.98 13.02L6.05 13.02L4.83 10.63L3.71 13.02L0.03 13.02L3.09 8.41L0.14 3.78L3.99 3.78L5.07 6.09L6.16 3.78L9.72 3.78L6.78 8.33L9.98 13.02ZM13.37 13.16Q12.07 13.16 11.17 12.91Q10.28 12.67 9.66 12.12L9.66 12.12L11.07 10.42Q11.48 10.78 12.01 11.00Q12.54 11.23 13.13 11.23L13.13 11.23Q13.40 11.23 13.57 11.18Q13.75 11.13 13.75 11.02L13.75 11.02Q13.75 10.89 13.51 10.79Q13.27 10.68 12.70 10.57L12.70 10.57Q11.19 10.28 10.49 9.72Q9.80 9.17 9.80 8.32L9.80 8.32Q9.80 7.70 10.21 7.15Q10.63 6.59 11.48 6.24Q12.33 5.88 13.59 5.88L13.59 5.88Q14.83 5.88 15.66 6.17Q16.49 6.47 16.97 6.90L16.97 6.90L15.65 8.46Q15.01 7.81 13.75 7.81L13.75 7.81Q13.37 7.81 13.20 7.88Q13.03 7.95 13.03 8.06L13.03 8.06Q13.03 8.23 13.89 8.34L13.89 8.34Q15.50 8.57 16.24 9.12Q16.98 9.67 16.98 10.64L16.98 10.64Q16.98 11.73 16.09 12.45Q15.19 13.16 13.37 13.16L13.37 13.16ZM22.85 5.88Q24.14 5.88 24.83 6.82Q25.52 7.76 25.52 9.48L25.52 9.48Q25.52 11.23 24.82 12.19Q24.11 13.16 22.83 13.16L22.83 13.16Q22.12 13.16 21.63 12.81Q21.14 12.46 20.86 11.84L20.86 11.84L20.86 15.96L17.64 15.96L17.64 6.02L20.47 6.02L20.55 7.66Q20.82 6.83 21.41 6.36Q22.01 5.88 22.85 5.88L22.85 5.88ZM21.55 10.89Q21.91 10.89 22.09 10.60Q22.27 10.30 22.27 9.52L22.27 9.52Q22.27 8.74 22.09 8.43Q21.91 8.13 21.55 8.13L21.55 8.13Q21.21 8.13 21.04 8.45Q20.86 8.76 20.86 9.46L20.86 9.46L20.86 9.58Q20.86 10.25 21.03 10.57Q21.20 10.89 21.55 10.89L21.55 10.89ZM33.82 6.02L31.77 12.24Q31.29 13.65 30.73 14.47Q30.17 15.29 29.39 15.66Q28.60 16.03 27.45 16.03L27.45 16.03Q26.15 16.03 25.30 15.57L25.30 15.57L25.89 13.54Q26.11 13.66 26.38 13.72Q26.64 13.78 27.13 13.78L27.13 13.78Q27.58 13.78 27.80 13.69Q28.01 13.61 28.10 13.40L28.10 13.40L28.14 13.29L27.26 11.23L25.26 6.02L28.77 6.02L29.40 9.63L29.67 11.27L29.97 9.62L30.67 6.02L33.82 6.02ZM41.57 11.30Q41.80 11.30 41.92 11.24L41.92 11.24L41.66 12.88Q41.19 13.16 40.63 13.16L40.63 13.16Q39.77 13.16 39.20 12.86Q38.63 12.56 38.43 11.98L38.43 11.98Q38.11 12.53 37.48 12.84Q36.86 13.16 35.94 13.16L35.94 13.16Q34.85 13.16 34.31 12.73Q33.78 12.31 33.78 11.49L33.78 11.49Q33.78 10.61 34.41 10.09Q35.04 9.56 36.51 9.24L36.51 9.24L37.90 8.93L37.90 8.65Q37.90 8.33 37.74 8.15Q37.58 7.97 37.27 7.97L37.27 7.97Q36.93 7.97 36.74 8.15Q36.54 8.34 36.53 8.82L36.53 8.82L33.87 8.41Q33.98 7.21 34.87 6.54Q35.77 5.88 37.45 5.88L37.45 5.88Q39.31 5.88 40.20 6.59Q41.09 7.31 41.09 8.76L41.09 8.76L41.09 10.72Q41.09 11.30 41.57 11.30L41.57 11.30ZM37.30 11.41Q37.56 11.41 37.73 11.23Q37.90 11.06 37.90 10.72L37.90 10.72L37.90 10.05L37.44 10.19Q37.14 10.28 36.97 10.46Q36.81 10.65 36.81 10.92L36.81 10.92Q36.81 11.16 36.95 11.28Q37.09 11.41 37.30 11.41L37.30 11.41ZM47.54 5.88Q48.83 5.88 49.52 6.82Q50.22 7.76 50.22 9.48L50.22 9.48Q50.22 11.23 49.51 12.19Q48.80 13.16 47.53 13.16L47.53 13.16Q46.82 13.16 46.33 12.81Q45.84 12.46 45.56 11.84L45.56 11.84L45.56 15.96L42.34 15.96L42.34 6.02L45.16 6.02L45.25 7.66Q45.51 6.83 46.11 6.36Q46.70 5.88 47.54 5.88L47.54 5.88ZM46.24 10.89Q46.61 10.89 46.79 10.60Q46.97 10.30 46.97 9.52L46.97 9.52Q46.97 8.74 46.79 8.43Q46.61 8.13 46.24 8.13L46.24 8.13Q45.91 8.13 45.73 8.45Q45.56 8.76 45.56 9.46L45.56 9.46L45.56 9.58Q45.56 10.25 45.72 10.57Q45.89 10.89 46.24 10.89L46.24 10.89ZM56.32 5.88Q57.61 5.88 58.30 6.82Q59.00 7.76 59.00 9.48L59.00 9.48Q59.00 11.23 58.29 12.19Q57.58 13.16 56.31 13.16L56.31 13.16Q55.59 13.16 55.10 12.81Q54.61 12.46 54.33 11.84L54.33 11.84L54.33 15.96L51.11 15.96L51.11 6.02L53.94 6.02L54.03 7.66Q54.29 6.83 54.89 6.36Q55.48 5.88 56.32 5.88L56.32 5.88ZM55.02 10.89Q55.38 10.89 55.57 10.60Q55.75 10.30 55.75 9.52L55.75 9.52Q55.75 8.74 55.57 8.43Q55.38 8.13 55.02 8.13L55.02 8.13Q54.68 8.13 54.51 8.45Q54.33 8.76 54.33 9.46L54.33 9.46L54.33 9.58Q54.33 10.25 54.50 10.57Q54.67 10.89 55.02 10.89L55.02 10.89Z"></path></g><!----><!----></svg>